<svg xmlns="http://www.w3.org/2000/svg" viewBox="0 0 400 400">
  <defs>
    <!-- Job marker gradient -->
    <radialGradient id="markerGradient" cx="30%" cy="30%">
      <stop offset="0%" stop-color="#F5923A"/>
      <stop offset="70%" stop-color="#E67E22"/>
      <stop offset="100%" stop-color="#D35400"/>
    </radialGradient>

    <!-- Shadow filter -->
    <filter id="markerShadow" x="-50%" y="-50%" width="200%" height="200%">
      <feDropShadow dx="0" dy="2" stdDeviation="2" flood-color="#000" flood-opacity="0.25"/>
    </filter>
  </defs>

  <g transform="translate(200,200)">

    <!-- ROUTE 1: North cluster (downtown - 3 jobs grouped) -->
    <path d="M 0,0 Q -10,-40 -18,-75 Q 0,-85 15,-88 Q 25,-75 38,-65"
          fill="none"
          stroke="#E67E22"
          stroke-width="2"
          stroke-dasharray="5,3"
          stroke-linecap="round"
          opacity="0.5"/>

    <!-- Job 1a -->
    <g transform="translate(-18,-75)">
      <circle r="10" fill="url(#markerGradient)" filter="url(#markerShadow)"/>
      <rect x="-3" y="-4" width="6" height="8" rx="1" fill="#FAFAF8"/>
    </g>

    <!-- Job 1b -->
    <g transform="translate(15,-88)">
      <circle r="10" fill="url(#markerGradient)" filter="url(#markerShadow)"/>
      <rect x="-3" y="-4" width="6" height="8" rx="1" fill="#FAFAF8"/>
    </g>

    <!-- Job 1c -->
    <g transform="translate(38,-65)">
      <circle r="10" fill="url(#markerGradient)" filter="url(#markerShadow)"/>
      <rect x="-3" y="-4" width="6" height="8" rx="1" fill="#FAFAF8"/>
    </g>


    <!-- ROUTE 2: East (industrial - 2 jobs) -->
    <path d="M 0,0 Q 40,-15 72,-22 Q 82,0 85,25"
          fill="none"
          stroke="#E67E22"
          stroke-width="2"
          stroke-dasharray="5,3"
          stroke-linecap="round"
          opacity="0.5"/>

    <!-- Job 2a -->
    <g transform="translate(72,-22)">
      <circle r="10" fill="url(#markerGradient)" filter="url(#markerShadow)"/>
      <rect x="-3" y="-4" width="6" height="8" rx="1" fill="#FAFAF8"/>
    </g>

    <!-- Job 2b -->
    <g transform="translate(85,25)">
      <circle r="10" fill="url(#markerGradient)" filter="url(#markerShadow)"/>
      <rect x="-3" y="-4" width="6" height="8" rx="1" fill="#FAFAF8"/>
    </g>


    <!-- ROUTE 3: Southwest (single outlier) -->
    <path d="M 0,0 Q -35,30 -65,58"
          fill="none"
          stroke="#E67E22"
          stroke-width="2"
          stroke-dasharray="5,3"
          stroke-linecap="round"
          opacity="0.5"/>

    <!-- Job 3a -->
    <g transform="translate(-65,58)">
      <circle r="10" fill="url(#markerGradient)" filter="url(#markerShadow)"/>
      <rect x="-3" y="-4" width="6" height="8" rx="1" fill="#FAFAF8"/>
    </g>

  </g>
</svg>