<svg xmlns="http://www.w3.org/2000/svg" viewBox="0 0 400 400">
  <defs>
    <!-- Tire rubber gradient -->
    <linearGradient id="tireGradient" x1="0%" y1="0%" x2="100%" y2="100%">
      <stop offset="0%" stop-color="#2a2a2a"/>
      <stop offset="25%" stop-color="#1a1a1a"/>
      <stop offset="50%" stop-color="#111"/>
      <stop offset="75%" stop-color="#1a1a1a"/>
      <stop offset="100%" stop-color="#252525"/>
    </linearGradient>

    <!-- Metal rim gradient -->
    <linearGradient id="rimGradient" x1="0%" y1="0%" x2="100%" y2="100%">
      <stop offset="0%" stop-color="#888"/>
      <stop offset="30%" stop-color="#666"/>
      <stop offset="50%" stop-color="#555"/>
      <stop offset="70%" stop-color="#666"/>
      <stop offset="100%" stop-color="#777"/>
    </linearGradient>

    <!-- Hub gradient -->
    <radialGradient id="hubGradient" cx="40%" cy="40%">
      <stop offset="0%" stop-color="#777"/>
      <stop offset="100%" stop-color="#444"/>
    </radialGradient>
  </defs>

  <g transform="translate(200,200)">

    <!-- === TIRE === -->
    <!-- Outer tire edge -->
    <circle r="130" fill="none" stroke="#0a0a0a" stroke-width="3"/>

    <!-- Main tire body -->
    <circle r="120" fill="none" stroke="url(#tireGradient)" stroke-width="18"/>

    <!-- Tread grooves - chevron pattern -->
    <g stroke="#080808" stroke-width="1.5" fill="none" opacity="0.8">
      <path d="M0,-129 L-4,-118 M0,-129 L4,-118" transform="rotate(0)"/>
      <path d="M0,-129 L-4,-118 M0,-129 L4,-118" transform="rotate(15)"/>
      <path d="M0,-129 L-4,-118 M0,-129 L4,-118" transform="rotate(30)"/>
      <path d="M0,-129 L-4,-118 M0,-129 L4,-118" transform="rotate(45)"/>
      <path d="M0,-129 L-4,-118 M0,-129 L4,-118" transform="rotate(60)"/>
      <path d="M0,-129 L-4,-118 M0,-129 L4,-118" transform="rotate(75)"/>
      <path d="M0,-129 L-4,-118 M0,-129 L4,-118" transform="rotate(90)"/>
      <path d="M0,-129 L-4,-118 M0,-129 L4,-118" transform="rotate(105)"/>
      <path d="M0,-129 L-4,-118 M0,-129 L4,-118" transform="rotate(120)"/>
      <path d="M0,-129 L-4,-118 M0,-129 L4,-118" transform="rotate(135)"/>
      <path d="M0,-129 L-4,-118 M0,-129 L4,-118" transform="rotate(150)"/>
      <path d="M0,-129 L-4,-118 M0,-129 L4,-118" transform="rotate(165)"/>
      <path d="M0,-129 L-4,-118 M0,-129 L4,-118" transform="rotate(180)"/>
      <path d="M0,-129 L-4,-118 M0,-129 L4,-118" transform="rotate(195)"/>
      <path d="M0,-129 L-4,-118 M0,-129 L4,-118" transform="rotate(210)"/>
      <path d="M0,-129 L-4,-118 M0,-129 L4,-118" transform="rotate(225)"/>
      <path d="M0,-129 L-4,-118 M0,-129 L4,-118" transform="rotate(240)"/>
      <path d="M0,-129 L-4,-118 M0,-129 L4,-118" transform="rotate(255)"/>
      <path d="M0,-129 L-4,-118 M0,-129 L4,-118" transform="rotate(270)"/>
      <path d="M0,-129 L-4,-118 M0,-129 L4,-118" transform="rotate(285)"/>
      <path d="M0,-129 L-4,-118 M0,-129 L4,-118" transform="rotate(300)"/>
      <path d="M0,-129 L-4,-118 M0,-129 L4,-118" transform="rotate(315)"/>
      <path d="M0,-129 L-4,-118 M0,-129 L4,-118" transform="rotate(330)"/>
      <path d="M0,-129 L-4,-118 M0,-129 L4,-118" transform="rotate(345)"/>
    </g>

    <!-- Tire inner bead -->
    <circle r="111" fill="none" stroke="#1a1a1a" stroke-width="2"/>

    <!-- === RIM === -->
    <circle r="108" fill="none" stroke="url(#rimGradient)" stroke-width="5"/>
    <circle r="104" fill="none" stroke="#444" stroke-width="1"/>

    <!-- === SPOKES === -->
    <g stroke="#888" stroke-width="1.5">
      <line x1="0" y1="-22" x2="0" y2="-102" transform="rotate(0)"/>
      <line x1="0" y1="-22" x2="0" y2="-102" transform="rotate(22.5)"/>
      <line x1="0" y1="-22" x2="0" y2="-102" transform="rotate(45)"/>
      <line x1="0" y1="-22" x2="0" y2="-102" transform="rotate(67.5)"/>
      <line x1="0" y1="-22" x2="0" y2="-102" transform="rotate(90)"/>
      <line x1="0" y1="-22" x2="0" y2="-102" transform="rotate(112.5)"/>
      <line x1="0" y1="-22" x2="0" y2="-102" transform="rotate(135)"/>
      <line x1="0" y1="-22" x2="0" y2="-102" transform="rotate(157.5)"/>
      <line x1="0" y1="-22" x2="0" y2="-102" transform="rotate(180)"/>
      <line x1="0" y1="-22" x2="0" y2="-102" transform="rotate(202.5)"/>
      <line x1="0" y1="-22" x2="0" y2="-102" transform="rotate(225)"/>
      <line x1="0" y1="-22" x2="0" y2="-102" transform="rotate(247.5)"/>
      <line x1="0" y1="-22" x2="0" y2="-102" transform="rotate(270)"/>
      <line x1="0" y1="-22" x2="0" y2="-102" transform="rotate(292.5)"/>
      <line x1="0" y1="-22" x2="0" y2="-102" transform="rotate(315)"/>
      <line x1="0" y1="-22" x2="0" y2="-102" transform="rotate(337.5)"/>
    </g>

    <!-- === HUB === -->
    <circle r="22" fill="url(#hubGradient)"/>
    <circle r="17" fill="none" stroke="#555" stroke-width="2"/>
    <circle r="6" fill="#333"/>

  </g>
</svg>
